REM DIRINDEX 1\2,1\4,1\3\5,1\3\6,1\3\7
REM DIRNAME cjc081,folder01,folder02,folder03,folder04,folder05,folder06
TITLE ""
FILE "CD2Track09.mp3" MP3
  TRACK 01 AUDIO
    TITLE "0:"
    INDEX 01 00:00:00
  TRACK 02 AUDIO
    TITLE "5:cjc081_1297"
    INDEX 01 00:00:23
  TRACK 03 AUDIO
    TITLE "0:"
    INDEX 01 00:02:00
  TRACK 04 AUDIO
    TITLE "6:cjc081_1298"
    INDEX 01 00:02:42
  TRACK 05 AUDIO
    TITLE "0:"
    INDEX 01 00:04:72
  TRACK 06 AUDIO
    TITLE "5:cjc081_1299"
    INDEX 01 00:05:34
  TRACK 07 AUDIO
    TITLE "0:"
    INDEX 01 00:07:03
  TRACK 08 AUDIO
    TITLE "6:cjc081_1300"
    INDEX 01 00:07:41
  TRACK 09 AUDIO
    TITLE "0:"
    INDEX 01 00:09:02
  TRACK 10 AUDIO
    TITLE "5:cjc081_1301"
    INDEX 01 00:09:42
  TRACK 11 AUDIO
    TITLE "0:"
    INDEX 01 00:10:65
  TRACK 12 AUDIO
    TITLE "6:cjc081_1302"
    INDEX 01 00:11:31
  TRACK 13 AUDIO
    TITLE "0:"
    INDEX 01 00:14:07
  TRACK 14 AUDIO
    TITLE "5:cjc081_1303"
    INDEX 01 00:14:53
  TRACK 15 AUDIO
    TITLE "0:"
    INDEX 01 00:15:72
  TRACK 16 AUDIO
    TITLE "6:cjc081_1304"
    INDEX 01 00:16:40
  TRACK 17 AUDIO
    TITLE "0:"
    INDEX 01 00:17:45
  TRACK 18 AUDIO
    TITLE "5:cjc081_1305"
    INDEX 01 00:18:07
  TRACK 19 AUDIO
    TITLE "0:"
    INDEX 01 00:19:18
  TRACK 20 AUDIO
    TITLE "6:cjc081_1306"
    INDEX 01 00:19:63
  TRACK 21 AUDIO
    TITLE "0:"
    INDEX 01 00:21:41
  TRACK 22 AUDIO
    TITLE "5:cjc081_1307"
    INDEX 01 00:22:07
  TRACK 23 AUDIO
    TITLE "0:"
    INDEX 01 00:23:44
  TRACK 24 AUDIO
    TITLE "6:cjc081_1308"
    INDEX 01 00:24:14
  TRACK 25 AUDIO
    TITLE "0:"
    INDEX 01 00:26:24
  TRACK 26 AUDIO
    TITLE "5:cjc081_1309"
    INDEX 01 00:26:64
  TRACK 27 AUDIO
    TITLE "0:"
    INDEX 01 00:28:06
  TRACK 28 AUDIO
    TITLE "6:cjc081_1310"
    INDEX 01 00:28:51
  TRACK 29 AUDIO
    TITLE "0:"
    INDEX 01 00:29:66
  TRACK 30 AUDIO
    TITLE "5:cjc081_1311"
    INDEX 01 00:30:28
  TRACK 31 AUDIO
    TITLE "0:"
    INDEX 01 00:32:01
  TRACK 32 AUDIO
    TITLE "6:cjc081_1312"
    INDEX 01 00:32:41
  TRACK 33 AUDIO
    TITLE "0:"
    INDEX 01 00:33:71
  TRACK 34 AUDIO
    TITLE "5:cjc081_1313"
    INDEX 01 00:34:38
  TRACK 35 AUDIO
    TITLE "0:"
    INDEX 01 00:35:51
  TRACK 36 AUDIO
    TITLE "6:cjc081_1314"
    INDEX 01 00:36:19
  TRACK 37 AUDIO
    TITLE "0:"
    INDEX 01 00:37:59
  TRACK 38 AUDIO
    TITLE "5:cjc081_1315"
    INDEX 01 00:38:22
  TRACK 39 AUDIO
    TITLE "0:"
    INDEX 01 00:39:47
  TRACK 40 AUDIO
    TITLE "6:cjc081_1316"
    INDEX 01 00:40:15
  TRACK 41 AUDIO
    TITLE "0:"
    INDEX 01 00:42:59
  TRACK 42 AUDIO
    TITLE "5:cjc081_1317"
    INDEX 01 00:43:21
  TRACK 43 AUDIO
    TITLE "0:"
    INDEX 01 00:44:56
  TRACK 44 AUDIO
    TITLE "6:cjc081_1318"
    INDEX 01 00:45:24
  TRACK 45 AUDIO
    TITLE "0:"
    INDEX 01 00:46:54
  TRACK 46 AUDIO
    TITLE "5:cjc081_1319"
    INDEX 01 00:47:17
  TRACK 47 AUDIO
    TITLE "0:"
    INDEX 01 00:48:38
  TRACK 48 AUDIO
    TITLE "6:cjc081_1320"
    INDEX 01 00:49:08
  TRACK 49 AUDIO
    TITLE "0:"
    INDEX 01 00:52:20
  TRACK 50 AUDIO
    TITLE "5:cjc081_1321"
    INDEX 01 00:52:67
  TRACK 51 AUDIO
    TITLE "0:"
    INDEX 01 00:54:05
  TRACK 52 AUDIO
    TITLE "6:cjc081_1322"
    INDEX 01 00:54:54
  TRACK 53 AUDIO
    TITLE "0:"
    INDEX 01 00:56:24
  TRACK 54 AUDIO
    TITLE "5:cjc081_1323"
    INDEX 01 00:56:63
  TRACK 55 AUDIO
    TITLE "0:"
    INDEX 01 00:58:24
  TRACK 56 AUDIO
    TITLE "6:cjc081_1324"
    INDEX 01 00:58:69
  TRACK 57 AUDIO
    TITLE "0:"
    INDEX 01 01:00:08
  TRACK 58 AUDIO
    TITLE "5:cjc081_1325"
    INDEX 01 01:00:53
  TRACK 59 AUDIO
    TITLE "0:"
    INDEX 01 01:01:74
  TRACK 60 AUDIO
    TITLE "6:cjc081_1326"
    INDEX 01 01:02:44
  TRACK 61 AUDIO
    TITLE "0:"
    INDEX 01 01:03:47
  TRACK 62 AUDIO
    TITLE "7:cjc081_1327"
    INDEX 01 01:05:09
  TRACK 63 AUDIO
    TITLE "0:"
    INDEX 01 01:15:60
